# xmcd CD database file
# Copyright (C) 1993-1998 Ti Kan
#
# Track frame offsets:
#  150
#  16010
#  39132
#  60112
#  70740
#  90590
#  117125
#  128645
#  152112
#  168690
#  191075
#  203800
#  231137
#  241642
#
# Disc length: 3838 seconds
#
# Revision: 1
# Processed by: cddbd v1.4b41PL1 Copyright (c) Steve Scherf et al.
# Submitted via: CDWizzard Release:4.35
#
DISCID=a20efc0e
DTITLE=HEADCRASH - Lifeboat
DYEAR=1900
DGENRE=
TTITLE0=Spun
TTITLE1=Vehicle
TTITLE2=Asphalt Ostrich
TTITLE3=Shelter
TTITLE4=Snake in the Grass
TTITLE5=Dark Waters
TTITLE6=The Brook
TTITLE7=Rubber Rafts
TTITLE8=Beyond the Wreck-age
TTITLE9=Alderon
TTITLE10=Thin Line
TTITLE11=Lifeboat
TTITLE12=Kite
TTITLE13=Time
EXTD=
EXTT0=
EXTT1=
EXTT2=
EXTT3=
EXTT4=
EXTT5=
EXTT6=
EXTT7=
EXTT8=
EXTT9=
EXTT10=
EXTT11=
EXTT12=
EXTT13=
PLAYORDER=
